<svg xmlns="http://www.w3.org/2000/svg" width="248" height="248" viewBox="0 0 248 248">
 <g transform="matrix(1.2876 0 0 1.2876 -.64971 -.50862)">
  <path d="m96.93 1.295c-52.678 0-95.528 42.852-95.528 95.516 0 52.686 42.85 95.531 95.528 95.531 52.671 0 95.52-42.845 95.52-95.531 0-52.666-42.85-95.519-95.52-95.519" fill="#500"/>
  <path d="m96.931 7.2435c-49.48 0-89.593 40.107-89.593 89.572 0 49.489 40.113 89.595 89.593 89.595 49.468 0 89.587-40.106 89.587-89.595 0-49.465-40.119-89.572-89.587-89.572zm-0.58789 10.402v0.0039c7.408 0 14.579 1.0276 21.369 2.9316v31.183c-4.67-2.2273-9.7403-3.7464-15.07-4.4218v35.043h12.392v28.881h-12.392v40.986c5.2835-0.5879 10.334-1.9235 15.07-3.8945v24.711c-6.795 1.9103-13.965 2.9316-21.369 2.9316-5.733 0-11.324-0.61918-16.709-1.7793v-154.8c5.386-1.1655 10.977-1.7754 16.709-1.7754zm-25.478 4.205v50.027h-13.785v-18.693c-6.2841 5.657-11.334 12.648-14.719 20.508l28.504 30.695v67.4c-21.821-7.426-39.371-24.139-47.966-45.394l15.308-10.432c2.896 8.76 7.7053 16.65 13.939 23.16v-25.804l-32.461-36.365c6.699-25.826 26.142-46.574 51.177-55.099zm55.974 2.1094c21.771 9.118 38.632 27.704 45.425 50.578l-15.648 11.805c-1.722-9.728-5.7506-18.689-11.512-26.26v73.675c5.7612-7.569 9.7898-16.528 11.512-26.265l15.652 11.799c-6.794 22.88-23.654 41.459-45.425 50.578v-145.9z" fill="#fff"/>
 </g>
</svg>